<?xml version="1.0" standalone="no"?>
<!DOCTYPE svg PUBLIC "-//W3C//DTD SVG 20010904//EN"
 "http://www.w3.org/TR/2001/REC-SVG-20010904/DTD/svg10.dtd">
<svg version="1.0" xmlns="http://www.w3.org/2000/svg"
 width="288.000000pt" height="288.000000pt" viewBox="0 0 288.000000 288.000000"
 preserveAspectRatio="xMidYMid meet">
<metadata>
Created by potrace 1.11, written by Peter Selinger 2001-2013
</metadata>
<g transform="translate(0.000000,288.000000) scale(0.100000,-0.100000)"
fill="#000000" stroke="none">
<path d="M0 1440 l0 -1440 685 0 684 0 15 49 c8 27 20 60 27 73 7 13 14 28 15
34 1 7 19 38 40 70 22 31 44 64 49 73 6 8 24 35 42 59 28 38 30 46 21 74 l-11
30 -27 -44 c-18 -28 -35 -44 -49 -45 -16 -1 -21 2 -17 13 3 8 0 14 -7 14 -8 0
-8 3 -2 8 6 4 19 20 29 37 l19 29 -31 -24 c-17 -14 -34 -33 -37 -42 -4 -10
-10 -18 -15 -18 -4 0 -18 -11 -31 -25 -13 -13 -28 -25 -32 -25 -12 0 -36 -20
-92 -78 -28 -28 -55 -52 -60 -52 -4 0 -22 -16 -40 -34 -18 -19 -35 -32 -38
-29 -4 3 8 21 25 39 18 18 44 53 60 76 15 24 31 46 35 50 5 4 25 23 46 42 22
19 36 39 33 45 -3 5 -2 21 4 35 10 29 6 33 -15 13 -45 -40 -46 -40 -41 -11 6
29 -17 56 -40 47 -13 -5 -94 28 -94 39 0 4 -7 5 -16 1 -14 -5 -15 -3 -5 15 16
30 14 49 -4 26 -13 -16 -14 -17 -9 -1 6 16 4 16 -22 5 -16 -7 -35 -18 -42 -25
-8 -7 -18 -11 -23 -8 -5 4 -9 -2 -10 -12 0 -10 -3 -13 -6 -5 -2 6 -19 12 -36
12 l-32 0 31 19 c17 10 49 36 72 57 51 48 65 53 56 18 -5 -20 -4 -25 5 -19 7
4 10 10 7 13 -3 3 -2 10 3 16 6 7 1 19 -16 34 -16 14 -23 17 -19 7 3 -8 1 -15
-4 -15 -6 0 -10 7 -10 16 0 10 -6 14 -14 11 -8 -3 -16 -1 -18 5 -2 6 -10 9
-17 7 -9 -3 -6 -11 8 -28 30 -35 27 -42 -29 -81 l-35 -24 29 38 c27 36 28 41
17 70 -7 17 -13 39 -13 49 1 10 -7 17 -17 17 -10 0 -24 7 -31 15 -11 13 -8 14
21 9 19 -3 56 -15 82 -25 36 -15 52 -17 62 -9 14 11 95 10 95 -2 0 -4 7 -5 15
-1 14 5 14 7 0 23 -16 17 -15 19 4 30 27 14 26 22 -5 88 -20 42 -29 53 -44 49
-11 -3 -27 2 -37 10 -17 13 -17 14 4 8 l22 -6 -4 133 c-5 145 -14 278 -21 318
-4 24 -4 24 5 2 6 -12 11 -39 13 -60 1 -20 5 -44 9 -52 4 -8 12 -60 17 -115
17 -168 33 -245 57 -265 8 -7 15 -22 15 -33 0 -15 3 -18 11 -10 8 8 5 24 -9
57 -14 31 -17 48 -10 52 7 4 8 2 4 -4 -4 -7 -2 -12 4 -12 6 0 9 -4 6 -8 -2 -4
0 -14 6 -22 8 -13 9 -12 5 1 -3 9 0 22 6 28 8 8 8 11 -1 11 -9 0 -9 4 0 20 12
19 12 19 31 0 10 -11 28 -20 40 -19 l22 1 -22 6 c-30 9 -76 73 -63 86 6 6 18
2 34 -13 14 -13 30 -21 37 -19 6 2 22 31 34 63 40 105 70 170 84 181 10 8 12
31 9 96 -6 92 1 114 43 147 33 26 41 18 22 -20 -15 -30 -11 -58 33 -231 13
-53 19 -150 7 -120 -2 6 -9 10 -14 6 -5 -3 -9 3 -9 12 0 14 -3 15 -12 6 -8 -8
-12 -50 -12 -122 -1 -119 -5 -107 58 -152 7 -5 6 -11 -4 -18 -13 -9 -13 -11 0
-20 29 -19 45 -6 53 43 3 21 22 63 42 93 63 95 69 118 51 217 -9 49 -35 110
-36 83 0 -11 5 -45 12 -76 14 -68 5 -121 -27 -157 -28 -32 -33 -17 -10 28 12
22 15 60 14 157 0 70 0 132 1 137 1 6 3 15 5 20 1 6 3 16 3 24 1 7 8 11 17 7
8 -3 15 0 15 7 1 11 23 -42 37 -88 4 -11 25 -38 48 -61 39 -41 45 -61 20 -76
-8 -5 -11 -23 -8 -50 2 -24 0 -72 -5 -108 -6 -36 -8 -67 -7 -68 2 -2 11 10 20
28 9 18 19 29 22 27 6 -7 -18 -110 -28 -117 -10 -7 -12 -32 -4 -57 l7 -22 36
19 c20 11 45 17 54 14 10 -3 18 0 18 6 0 7 8 9 23 4 22 -8 63 -11 146 -13 43
-1 44 -2 27 -20 -14 -15 -28 -18 -75 -15 -53 3 -59 2 -64 -18 -4 -16 -3 -18 6
-9 6 6 15 11 20 11 17 0 -18 -26 -61 -44 -54 -24 -82 -66 -44 -66 9 0 13 -4 7
-8 -18 -13 -15 -30 5 -25 11 3 18 9 15 13 -5 8 20 22 40 24 5 1 12 12 15 26 5
20 17 28 65 42 33 9 74 16 90 16 17 0 22 -2 13 -5 -21 -5 -23 -19 -6 -27 7 -3
4 -4 -8 -1 -13 3 -27 -2 -39 -15 -19 -21 -15 -37 6 -24 12 7 149 14 149 7 0
-2 -9 -12 -21 -24 l-21 -21 31 -27 c28 -25 42 -29 124 -35 88 -6 218 -31 187
-36 -35 -5 -46 -5 -55 2 -6 4 -60 3 -120 -1 -61 -5 -125 -6 -142 -4 -26 4 -33
2 -33 -11 0 -9 -6 -16 -12 -17 -24 -2 67 -27 100 -28 21 -1 43 -10 60 -27 l27
-26 -34 17 c-22 11 -58 17 -105 17 -104 0 -134 6 -143 32 -4 11 -6 25 -5 29 1
5 -2 6 -8 2 -15 -9 -12 -44 4 -61 8 -8 30 -17 48 -21 18 -3 36 -11 39 -16 4
-5 13 -6 20 -1 24 15 103 13 120 -2 9 -8 20 -14 25 -12 5 2 19 -7 32 -20 12
-12 27 -20 31 -17 12 7 20 -27 14 -59 l-5 -26 -42 33 c-51 43 -76 50 -112 36
-16 -6 -87 -10 -162 -10 l-132 0 6 -27 c4 -15 11 -30 17 -33 5 -4 4 -9 -3 -14
-18 -11 -69 43 -76 81 -3 17 -1 41 6 53 6 12 8 26 4 33 -4 7 -12 2 -20 -13 -7
-13 -10 -27 -8 -31 3 -5 0 -8 -6 -8 -15 0 -3 -58 15 -76 7 -7 16 -29 19 -48 7
-37 46 -72 106 -96 19 -8 49 -24 66 -37 17 -13 33 -20 37 -17 3 3 13 -6 23
-20 9 -15 14 -30 10 -34 -4 -3 -11 0 -16 8 -5 8 -12 12 -15 8 -4 -4 -27 9 -52
28 -24 19 -49 35 -54 35 -5 1 -13 3 -19 4 -5 1 -19 3 -30 4 -12 0 -25 12 -30
26 -5 14 -14 25 -19 25 -16 0 -92 69 -146 132 -14 16 -19 17 -33 6 -14 -11
-15 -11 -7 7 4 11 10 34 12 50 l5 30 -31 -35 -30 -35 9 32 c13 48 -5 50 -24 3
-17 -43 -83 -110 -122 -123 -13 -5 -24 -15 -24 -23 0 -8 -7 -26 -16 -39 -9
-14 -14 -25 -11 -25 4 0 -5 -11 -19 -25 -29 -29 -36 -31 -27 -8 5 11 3 14 -6
9 -7 -5 -11 -16 -8 -26 3 -12 0 -17 -8 -14 -8 4 -19 -12 -31 -43 -9 -26 -22
-52 -29 -58 -6 -5 -14 -20 -17 -32 l-6 -23 404 0 c446 0 408 -6 405 60 -1 22
0 23 10 7 6 -10 8 -29 5 -43 l-6 -24 340 0 340 0 0 1170 c0 931 -3 1169 -12
1165 -7 -2 -29 -6 -48 -8 -19 -3 -60 -15 -90 -27 -30 -12 -67 -23 -82 -25 -15
-2 -38 -7 -50 -10 -38 -12 -7 9 52 35 30 13 71 35 90 47 19 13 40 23 45 23 21
0 100 43 87 48 -13 4 -49 -10 -145 -59 -31 -16 -59 -29 -62 -28 -17 1 -155
-75 -155 -86 0 -15 -109 -70 -172 -85 -26 -7 -49 -18 -52 -26 -3 -8 -19 -14
-36 -14 -16 0 -30 -4 -30 -9 0 -5 -18 -12 -40 -16 -22 -4 -40 -11 -40 -17 0
-5 -12 0 -26 11 -15 12 -37 21 -50 21 -15 0 -24 6 -24 15 0 8 -4 15 -8 15 -23
0 -50 113 -32 135 4 5 8 14 8 20 0 5 11 17 26 25 15 8 35 28 45 43 10 16 41
47 67 69 62 51 133 119 314 302 l145 146 -1303 0 -1302 0 0 -1440z m2364 1369
c-3 -5 -10 -7 -15 -3 -5 3 -7 10 -3 15 3 5 10 7 15 3 5 -3 7 -10 3 -15z
m-1310 -30 c-3 -5 -10 -7 -15 -3 -5 3 -7 10 -3 15 3 5 10 7 15 3 5 -3 7 -10 3
-15z m-540 -10 c-3 -5 -10 -7 -15 -3 -5 3 -7 10 -3 15 3 5 10 7 15 3 5 -3 7
-10 3 -15z m1320 -20 c-3 -5 -10 -7 -15 -3 -5 3 -7 10 -3 15 3 5 10 7 15 3 5
-3 7 -10 3 -15z m200 -30 c-3 -5 -10 -7 -15 -3 -5 3 -7 10 -3 15 3 5 10 7 15
3 5 -3 7 -10 3 -15z m-760 -20 c-3 -5 -10 -7 -15 -3 -5 3 -7 10 -3 15 3 5 10
7 15 3 5 -3 7 -10 3 -15z m310 -10 c-3 -5 -10 -7 -15 -3 -5 3 -7 10 -3 15 3 5
10 7 15 3 5 -3 7 -10 3 -15z m-1350 -110 c-3 -5 -10 -7 -15 -3 -5 3 -7 10 -3
15 3 5 10 7 15 3 5 -3 7 -10 3 -15z m580 -30 c-3 -5 -10 -7 -15 -3 -5 3 -7 10
-3 15 3 5 10 7 15 3 5 -3 7 -10 3 -15z m1110 -80 c-3 -5 -10 -7 -15 -3 -5 3
-7 10 -3 15 3 5 10 7 15 3 5 -3 7 -10 3 -15z m-509 -111 c105 -230 1 -511
-229 -623 -138 -67 -284 -67 -422 0 -113 55 -248 210 -164 188 11 -3 20 -11
20 -17 0 -7 7 -13 15 -13 8 0 12 4 9 9 -12 19 9 29 27 12 18 -16 19 -16 28 7
8 21 10 22 16 7 5 -11 17 -16 36 -15 26 2 29 5 24 25 -6 26 3 29 20 6 11 -15
14 -15 37 0 18 12 28 14 33 6 5 -8 11 -5 20 7 7 10 17 15 20 11 4 -4 16 -3 26
2 12 7 19 6 23 -3 3 -7 7 -3 12 11 5 18 9 20 20 11 11 -9 14 -8 14 1 0 7 9 21
20 30 12 10 20 22 19 26 -3 21 2 26 16 14 18 -15 47 -6 39 13 -3 8 6 21 20 31
15 9 26 22 26 30 0 7 11 18 24 26 14 7 22 18 19 26 -3 10 0 12 10 8 16 -6 42
28 30 40 -4 3 2 13 13 21 10 8 15 15 10 15 -4 0 2 9 15 21 17 14 19 19 7 15
-13 -4 -10 6 13 42 16 26 27 53 24 60 -5 15 19 45 29 35 3 -4 6 2 6 11 0 27
45 -31 75 -96z m-1071 71 c-3 -5 -10 -7 -15 -3 -5 3 -7 10 -3 15 3 5 10 7 15
3 5 -3 7 -10 3 -15z m1280 0 c-3 -5 -10 -7 -15 -3 -5 3 -7 10 -3 15 3 5 10 7
15 3 5 -3 7 -10 3 -15z m923 -185 c-3 -3 -12 -4 -19 -1 -8 3 -5 6 6 6 11 1 17
-2 13 -5z m-2403 -45 c-3 -5 -10 -7 -15 -3 -5 3 -7 10 -3 15 3 5 10 7 15 3 5
-3 7 -10 3 -15z m1700 -20 c-3 -5 -10 -7 -15 -3 -5 3 -7 10 -3 15 3 5 10 7 15
3 5 -3 7 -10 3 -15z m846 -29 c-20 -13 -43 -13 -35 0 3 6 16 10 28 10 18 0 19
-2 7 -10z m-2530 -78 c0 -13 -12 -22 -22 -16 -10 6 -1 24 13 24 5 0 9 -4 9 -8z
m2104 -33 c-3 -5 -10 -7 -15 -3 -5 3 -7 10 -3 15 3 5 10 7 15 3 5 -3 7 -10 3
-15z m-340 -30 c-3 -5 -10 -7 -15 -3 -5 3 -7 10 -3 15 3 5 10 7 15 3 5 -3 7
-10 3 -15z m580 -40 c-3 -5 -10 -7 -15 -3 -5 3 -7 10 -3 15 3 5 10 7 15 3 5
-3 7 -10 3 -15z m-850 -160 c-3 -5 -10 -7 -15 -3 -5 3 -7 10 -3 15 3 5 10 7
15 3 5 -3 7 -10 3 -15z m1050 0 c-3 -5 -10 -7 -15 -3 -5 3 -7 10 -3 15 3 5 10
7 15 3 5 -3 7 -10 3 -15z m-449 -49 c3 -5 -1 -10 -9 -10 -9 0 -16 5 -16 10 0
6 4 10 9 10 6 0 13 -4 16 -10z m-1961 -21 c-3 -5 -10 -7 -15 -3 -5 3 -7 10 -3
15 3 5 10 7 15 3 5 -3 7 -10 3 -15z m2169 -75 c-4 -12 -8 -13 -14 -3 -9 15 -2
32 11 24 5 -3 6 -13 3 -21z m-539 -15 c-3 -5 -10 -7 -15 -3 -5 3 -7 10 -3 15
3 5 10 7 15 3 5 -3 7 -10 3 -15z m-680 -20 c-3 -5 -10 -7 -15 -3 -5 3 -7 10
-3 15 3 5 10 7 15 3 5 -3 7 -10 3 -15z m1440 -20 c-3 -5 -10 -7 -15 -3 -5 3
-7 10 -3 15 3 5 10 7 15 3 5 -3 7 -10 3 -15z m-2490 -50 c-3 -5 -10 -7 -15 -3
-5 3 -7 10 -3 15 3 5 10 7 15 3 5 -3 7 -10 3 -15z m2246 7 c0 -3 -4 -8 -10
-11 -5 -3 -10 -1 -10 4 0 6 5 11 10 11 6 0 10 -2 10 -4z m-1736 -57 c-3 -5
-10 -7 -15 -3 -5 3 -7 10 -3 15 3 5 10 7 15 3 5 -3 7 -10 3 -15z m250 -20 c-3
-5 -10 -7 -15 -3 -5 3 -7 10 -3 15 3 5 10 7 15 3 5 -3 7 -10 3 -15z m-439
-139 c-3 -5 -11 -10 -16 -10 -6 0 -7 5 -4 10 3 6 11 10 16 10 6 0 7 -4 4 -10z
m1460 -30 c-3 -5 -12 -10 -18 -10 -7 0 -6 4 3 10 19 12 23 12 15 0z m-1081
-31 c-3 -5 -10 -7 -15 -3 -5 3 -7 10 -3 15 3 5 10 7 15 3 5 -3 7 -10 3 -15z
m-580 -10 c-3 -5 -10 -7 -15 -3 -5 3 -7 10 -3 15 3 5 10 7 15 3 5 -3 7 -10 3
-15z m1556 1 c0 -5 -4 -10 -10 -10 -5 0 -10 5 -10 10 0 6 5 10 10 10 6 0 10
-4 10 -10z m309 -83 c-12 -18 -39 -46 -60 -62 -22 -16 -42 -38 -45 -49 -4 -12
-10 -23 -13 -26 -10 -7 -51 -67 -51 -73 0 -3 9 -5 19 -4 11 0 17 5 15 9 -3 4
2 8 10 8 9 0 15 3 14 8 -4 11 54 72 82 87 14 7 32 25 39 39 8 14 18 23 22 20
4 -2 12 4 18 13 6 10 11 14 11 10 0 -5 -13 -27 -29 -50 -40 -59 -83 -147 -72
-147 5 0 21 4 35 10 20 7 24 6 20 -4 -11 -30 15 -24 30 7 8 17 16 25 16 16 0
-23 -40 -68 -46 -52 -4 9 -10 10 -24 1 -14 -9 -16 -17 -10 -29 13 -23 -7 -37
-45 -34 -82 9 -135 19 -135 26 0 5 -6 6 -13 3 -15 -5 -44 23 -34 33 4 3 -1 11
-10 18 -21 16 -10 61 16 68 11 2 31 27 45 53 14 27 25 43 26 37 0 -14 70 15
70 29 0 4 8 8 18 8 11 0 27 9 37 20 10 11 24 20 32 20 7 0 13 5 13 10 0 6 5
10 10 10 6 0 0 -15 -11 -33z m-2005 2 c-3 -5 -10 -7 -15 -3 -5 3 -7 10 -3 15
3 5 10 7 15 3 5 -3 7 -10 3 -15z m340 -200 c-3 -5 -10 -7 -15 -3 -5 3 -7 10
-3 15 3 5 10 7 15 3 5 -3 7 -10 3 -15z m751 11 c3 -5 -1 -10 -9 -10 -9 0 -16
5 -16 10 0 6 4 10 9 10 6 0 13 -4 16 -10z m-1071 -161 c-3 -5 -10 -7 -15 -3
-5 3 -7 10 -3 15 3 5 10 7 15 3 5 -3 7 -10 3 -15z m714 -62 c3 -12 -4 -17 -22
-17 -28 0 -33 9 -14 28 15 15 32 10 36 -11z m156 -7 c-5 -4 -18 -4 -29 0 -19
7 -19 8 5 18 25 10 41 -2 24 -18z m-64 0 c13 -9 13 -10 0 -9 -8 1 -26 5 -40 9
l-25 8 25 1 c14 0 32 -4 40 -9z m1298 -5 c-10 -11 -57 -15 -62 -6 -3 4 6 7 19
5 14 -1 28 2 31 8 3 5 9 7 12 4 3 -3 3 -8 0 -11z m-327 -48 c-6 -8 -9 -17 -6
-21 3 -3 0 -2 -6 3 -12 10 -4 31 13 31 7 0 7 -4 -1 -13z m-1608 -34 c-7 -2
-21 -2 -30 0 -10 3 -4 5 12 5 17 0 24 -2 18 -5z m541 -9 c3 -8 2 -12 -4 -9 -6
3 -10 10 -10 16 0 14 7 11 14 -7z m1416 -8 c0 -2 -7 -6 -15 -10 -8 -3 -15 -1
-15 4 0 6 7 10 15 10 8 0 15 -2 15 -4z m-1419 -157 c-25 -5 -50 -11 -55 -13
-14 -6 103 3 125 10 18 5 34 -22 18 -31 -5 -4 -8 -1 -7 7 2 8 -3 11 -12 8 -8
-2 -50 -5 -92 -5 -84 0 -120 -14 -42 -16 27 -1 38 -4 25 -6 -29 -6 -123 8
-101 14 8 2 24 8 35 13 46 20 82 28 115 28 33 0 33 -1 -9 -9z m-717 -50 c-3
-5 -10 -7 -15 -3 -5 3 -7 10 -3 15 3 5 10 7 15 3 5 -3 7 -10 3 -15z m786 11
c0 -5 -4 -10 -9 -10 -6 0 -13 5 -16 10 -3 6 1 10 9 10 9 0 16 -4 16 -10z m55
0 c-3 -5 -11 -10 -16 -10 -6 0 -7 5 -4 10 3 6 11 10 16 10 6 0 7 -4 4 -10z
m-270 -15 c6 -2 -14 -4 -43 -4 -29 -1 -51 3 -48 7 4 7 67 5 91 -3z m325 1 c0
-9 7 -12 18 -10 16 5 62 -28 62 -44 -1 -9 -21 -34 -42 -50 -15 -12 -16 -9 -11
28 5 36 3 40 -16 40 -11 0 -21 4 -21 9 0 5 -3 16 -6 25 -3 9 -1 16 5 16 6 0
11 -6 11 -14z m100 -36 c0 -5 -5 -10 -11 -10 -5 0 -7 5 -4 10 3 6 8 10 11 10
2 0 4 -4 4 -10z m1420 -20 c0 -5 -5 -10 -11 -10 -5 0 -7 5 -4 10 3 6 8 10 11
10 2 0 4 -4 4 -10z m164 -41 c-3 -5 -10 -7 -15 -3 -5 3 -7 10 -3 15 3 5 10 7
15 3 5 -3 7 -10 3 -15z m-2227 -45 c-3 -3 -12 -4 -19 -1 -8 3 -5 6 6 6 11 1
17 -2 13 -5z m1251 -16 c-8 -33 -38 -46 -125 -53 -48 -4 -95 -12 -103 -19 -13
-9 -13 -9 -2 5 16 21 118 54 154 50 15 -1 38 5 50 13 27 19 29 19 26 4z m79
-33 c34 -21 42 -35 20 -35 -17 0 -87 48 -87 60 0 11 21 3 67 -25z m558 -15 c3
-5 1 -10 -4 -10 -6 0 -11 5 -11 10 0 6 2 10 4 10 3 0 8 -4 11 -10z m-1700 -90
c-3 -5 -12 -10 -18 -10 -7 0 -6 4 3 10 19 12 23 12 15 0z m-441 -21 c-3 -5
-10 -7 -15 -3 -5 3 -7 10 -3 15 3 5 10 7 15 3 5 -3 7 -10 3 -15z m836 -19 c0
-5 -5 -10 -11 -10 -5 0 -7 5 -4 10 3 6 8 10 11 10 2 0 4 -4 4 -10z m484 -21
c-3 -5 -10 -7 -15 -3 -5 3 -7 10 -3 15 3 5 10 7 15 3 5 -3 7 -10 3 -15z"/>
<path d="M2087 940 c4 -15 13 -20 37 -19 24 1 26 3 8 6 -13 3 -26 11 -29 19
-8 22 -22 17 -16 -6z"/>
<path d="M2653 2863 c-20 -13 -32 -43 -18 -43 3 0 24 14 47 30 36 27 38 30 17
29 -13 0 -34 -7 -46 -16z"/>
<path d="M2734 2844 c-20 -41 -15 -51 12 -26 30 29 74 55 74 46 0 -5 -29 -44
-65 -87 -61 -74 -75 -97 -57 -97 4 0 41 34 82 75 41 41 79 74 85 71 5 -2 11 9
12 24 2 28 2 28 -62 29 -64 0 -65 0 -81 -35z"/>
<path d="M2850 2529 c-24 -20 -24 -21 -5 -35 29 -21 35 -17 35 21 0 19 -1 35
-2 35 -2 -1 -14 -10 -28 -21z"/>
<path d="M1552 1260 c0 -14 2 -19 5 -12 2 6 2 18 0 25 -3 6 -5 1 -5 -13z"/>
<path d="M1468 1154 c-13 -20 -51 -144 -46 -149 15 -16 36 13 47 64 13 58 12
106 -1 85z"/>
<path d="M1300 865 c0 -8 4 -15 10 -15 5 0 7 7 4 15 -4 8 -8 15 -10 15 -2 0
-4 -7 -4 -15z"/>
<path d="M1314 829 c-4 -8 -3 -9 4 -5 17 10 15 -7 -3 -30 -13 -16 -14 -16 -9
-1 5 13 2 16 -11 11 -12 -5 -16 -17 -14 -43 4 -50 -18 -81 -54 -74 -15 3 -30
9 -33 14 -7 12 -64 11 -64 -1 0 -5 8 -10 18 -10 27 0 61 -51 55 -83 -4 -22 -2
-26 11 -21 9 3 16 12 16 20 0 8 4 14 10 14 22 0 90 35 90 47 0 6 7 19 16 27 8
9 11 16 6 16 -10 0 -12 16 -12 77 0 43 -13 63 -26 42z"/>
<path d="M1966 813 c-63 -16 -176 -104 -176 -138 0 -19 14 -19 30 0 7 8 16 13
20 10 5 -3 11 -1 15 5 3 5 0 10 -7 10 -7 0 3 14 22 30 40 34 105 72 113 64 2
-3 7 2 10 11 7 15 5 16 -27 8z"/>
<path d="M1780 775 c-21 -25 -2 -31 20 -7 15 16 17 22 7 22 -8 0 -20 -7 -27
-15z"/>
<path d="M2057 713 c-10 -10 -8 -73 2 -73 5 0 14 13 19 29 8 22 7 32 -2 40 -7
6 -16 8 -19 4z"/>
<path d="M1470 699 c0 -6 7 -17 15 -25 13 -14 15 -13 15 10 0 16 -6 26 -15 26
-8 0 -15 -5 -15 -11z"/>
<path d="M1450 660 c0 -5 -7 -10 -17 -10 -9 0 -14 -2 -11 -5 8 -9 58 6 58 16
0 5 -7 9 -15 9 -8 0 -15 -4 -15 -10z"/>
<path d="M2074 635 c-7 -18 3 -65 14 -65 4 0 8 18 7 40 0 40 -11 53 -21 25z"/>
<path d="M1378 633 c6 -2 18 -2 25 0 6 3 1 5 -13 5 -14 0 -19 -2 -12 -5z"/>
<path d="M1865 620 c-3 -11 -2 -27 3 -35 6 -13 11 -8 19 20 9 28 8 35 -2 35
-8 0 -16 -9 -20 -20z"/>
<path d="M1810 608 c0 -12 1 -19 3 -17 1 2 9 12 16 22 12 14 11 17 -3 17 -10
0 -16 -8 -16 -22z"/>
<path d="M1475 563 c-11 -2 -35 -9 -52 -14 -29 -9 -32 -13 -22 -31 14 -26 3
-37 -15 -13 -10 14 -30 20 -77 22 -47 3 -60 1 -49 -6 8 -6 27 -11 42 -11 24 0
58 -22 58 -38 0 -4 -4 -22 -9 -40 -5 -17 -6 -32 -1 -32 10 0 70 74 70 87 0 14
36 54 43 47 3 -3 16 2 29 10 14 9 28 13 33 9 4 -5 5 -2 1 5 -7 12 -16 13 -51
5z"/>
<path d="M1710 561 c0 -8 -7 -11 -15 -7 -10 4 -15 -1 -15 -14 0 -11 4 -20 10
-20 12 0 34 40 26 48 -3 3 -6 0 -6 -7z"/>
<path d="M2066 553 c6 -4 14 -15 17 -23 5 -11 6 -9 4 4 -1 11 -9 21 -17 23
-10 3 -11 2 -4 -4z"/>
<path d="M1620 501 c-13 -25 -13 -58 0 -66 6 -3 10 1 10 10 0 11 5 15 16 11 8
-3 13 -2 9 3 -3 5 0 11 6 13 16 5 1 48 -16 48 -8 0 -19 -9 -25 -19z"/>
<path d="M1480 216 c0 -2 7 -7 16 -10 8 -3 12 -2 9 4 -6 10 -25 14 -25 6z"/>
</g>
</svg>
